<svg width="22" height="22" viewBox="0 0 22 22" fill="none" xmlns="http://www.w3.org/2000/svg">
<path d="M19.8642 0.599609H2.13505C1.72783 0.599609 1.33728 0.761379 1.04933 1.04933C0.761379 1.33728 0.599609 1.72783 0.599609 2.13505V19.8642C0.599609 20.2714 0.761379 20.6619 1.04933 20.9499C1.33728 21.2378 1.72783 21.3996 2.13505 21.3996H19.8642C20.2714 21.3996 20.6619 21.2378 20.9499 20.9499C21.2378 20.6619 21.3996 20.2714 21.3996 19.8642V2.13505C21.3996 1.72783 21.2378 1.33728 20.9499 1.04933C20.6619 0.761379 20.2714 0.599609 19.8642 0.599609ZM6.79916 18.3186H3.67194V8.38516H6.79916V18.3186ZM5.23339 7.00861C4.87866 7.00661 4.53247 6.89958 4.23851 6.70102C3.94456 6.50246 3.716 6.22127 3.5817 5.89294C3.4474 5.56461 3.41337 5.20386 3.4839 4.8562C3.55444 4.50855 3.72637 4.18958 3.97801 3.93955C4.22965 3.68952 4.54972 3.51964 4.89781 3.45134C5.24591 3.38304 5.60644 3.41939 5.9339 3.5558C6.26136 3.6922 6.54108 3.92255 6.73775 4.21778C6.93441 4.51301 7.03922 4.85988 7.03894 5.21461C7.04229 5.45211 6.99779 5.68784 6.90809 5.90777C6.81839 6.1277 6.68533 6.32732 6.51684 6.49473C6.34835 6.66215 6.14788 6.79392 5.92738 6.88221C5.70688 6.97049 5.47086 7.01348 5.23339 7.00861ZM18.3258 18.3273H15.2001V12.9005C15.2001 11.3001 14.5197 10.8061 13.6415 10.8061C12.7142 10.8061 11.8042 11.5052 11.8042 12.9409V18.3273H8.67694V8.39239H11.6843V9.76894H11.7247C12.0266 9.15794 13.0839 8.11361 14.6974 8.11361C16.4423 8.11361 18.3273 9.14928 18.3273 12.1826L18.3258 18.3273Z" fill="white"/>
</svg>
