<svg width="24" height="15" viewBox="0 0 24 15" fill="none" xmlns="http://www.w3.org/2000/svg">
<path d="M13.5374 7.22809C13.5374 10.9988 10.5069 14.0556 6.76883 14.0556C3.03073 14.0556 0 10.9981 0 7.22809C0 3.45806 3.0305 0.400391 6.76883 0.400391C10.5072 0.400391 13.5374 3.45737 13.5374 7.22809Z" fill="white"/>
<path d="M20.9632 7.22853C20.9632 10.7778 19.4479 13.6563 17.5788 13.6563C15.7096 13.6563 14.1943 10.7778 14.1943 7.22853C14.1943 3.67922 15.7094 0.800781 17.5785 0.800781C19.4477 0.800781 20.9629 3.67829 20.9629 7.22853" fill="white"/>
<path d="M23.9995 7.22798C23.9995 10.4073 23.4667 12.9862 22.8092 12.9862C22.1517 12.9862 21.6191 10.408 21.6191 7.22798C21.6191 4.04797 22.152 1.46973 22.8092 1.46973C23.4665 1.46973 23.9995 4.04774 23.9995 7.22798Z" fill="white"/>
</svg>
